<?xml version="1.0" encoding="UTF-8" standalone="no"?>
<svg
   xmlns:dc="http://purl.org/dc/elements/1.1/"
   xmlns:cc="http://creativecommons.org/ns#"
   xmlns:rdf="http://www.w3.org/1999/02/22-rdf-syntax-ns#"
   xmlns:svg="http://www.w3.org/2000/svg"
   xmlns="http://www.w3.org/2000/svg"
   xmlns:sodipodi="http://sodipodi.sourceforge.net/DTD/sodipodi-0.dtd"
   xmlns:inkscape="http://www.inkscape.org/namespaces/inkscape"
   width="370.26459mm"
   height="742.26453mm"
   viewBox="0 0 370.26459 742.26453"
   version="1.1"
   id="svg8"
   inkscape:version="1.0.2-2 (e86c870879, 2021-01-15)"
   sodipodi:docname="neoclock_wemos_mdf3mm_370x742.svg">
  <defs
     id="defs2">
    <marker
       id="DistanceX"
       orient="auto"
       refX="0"
       refY="0"
       style="overflow:visible">
      <path
         d="M 3,-3 -3,3 M 0,-5 V 5"
         style="stroke:#000000;stroke-width:0.5"
         id="path833" />
    </marker>
    <pattern
       id="Hatch"
       patternUnits="userSpaceOnUse"
       width="8"
       height="8"
       x="0"
       y="0">
      <path
         d="M8 4 l-4,4"
         stroke="#000000"
         stroke-width="0.25"
         linecap="square"
         id="path836" />
      <path
         d="M6 2 l-4,4"
         stroke="#000000"
         stroke-width="0.25"
         linecap="square"
         id="path838" />
      <path
         d="M4 0 l-4,4"
         stroke="#000000"
         stroke-width="0.25"
         linecap="square"
         id="path840" />
    </pattern>
    <symbol
       id="*MODEL_SPACE" />
    <symbol
       id="*PAPER_SPACE" />
    <marker
       id="DistanceX-9"
       orient="auto"
       refX="0"
       refY="0"
       style="overflow:visible">
      <path
         d="M 3,-3 -3,3 M 0,-5 V 5"
         style="stroke:#000000;stroke-width:0.5"
         id="path1043" />
    </marker>
    <pattern
       id="Hatch-1"
       patternUnits="userSpaceOnUse"
       width="8"
       height="8"
       x="0"
       y="0">
      <path
         d="M8 4 l-4,4"
         stroke="#000000"
         stroke-width="0.25"
         linecap="square"
         id="path1046" />
      <path
         d="M6 2 l-4,4"
         stroke="#000000"
         stroke-width="0.25"
         linecap="square"
         id="path1048" />
      <path
         d="M4 0 l-4,4"
         stroke="#000000"
         stroke-width="0.25"
         linecap="square"
         id="path1050" />
    </pattern>
    <symbol
       id="*MODEL_SPACE-0" />
    <symbol
       id="*PAPER_SPACE-9" />
    <marker
       id="DistanceX-99"
       orient="auto"
       refX="0"
       refY="0"
       style="overflow:visible">
      <path
         d="M 3,-3 -3,3 M 0,-5 V 5"
         style="stroke:#000000;stroke-width:0.5"
         id="path1319" />
    </marker>
    <pattern
       id="Hatch-2"
       patternUnits="userSpaceOnUse"
       width="8"
       height="8"
       x="0"
       y="0">
      <path
         d="M8 4 l-4,4"
         stroke="#000000"
         stroke-width="0.25"
         linecap="square"
         id="path1322" />
      <path
         d="M6 2 l-4,4"
         stroke="#000000"
         stroke-width="0.25"
         linecap="square"
         id="path1324" />
      <path
         d="M4 0 l-4,4"
         stroke="#000000"
         stroke-width="0.25"
         linecap="square"
         id="path1326" />
    </pattern>
    <symbol
       id="*MODEL_SPACE-1" />
    <symbol
       id="*PAPER_SPACE-7" />
    <marker
       id="DistanceX-5"
       orient="auto"
       refX="0"
       refY="0"
       style="overflow:visible">
      <path
         d="M 3,-3 -3,3 M 0,-5 V 5"
         style="stroke:#000000;stroke-width:0.5"
         id="path1493" />
    </marker>
    <pattern
       id="Hatch-0"
       patternUnits="userSpaceOnUse"
       width="8"
       height="8"
       x="0"
       y="0">
      <path
         d="M8 4 l-4,4"
         stroke="#000000"
         stroke-width="0.25"
         linecap="square"
         id="path1496" />
      <path
         d="M6 2 l-4,4"
         stroke="#000000"
         stroke-width="0.25"
         linecap="square"
         id="path1498" />
      <path
         d="M4 0 l-4,4"
         stroke="#000000"
         stroke-width="0.25"
         linecap="square"
         id="path1500" />
    </pattern>
    <symbol
       id="*MODEL_SPACE-6" />
    <symbol
       id="*PAPER_SPACE-3" />
    <marker
       id="DistanceX-7"
       orient="auto"
       refX="0"
       refY="0"
       style="overflow:visible">
      <path
         d="M 3,-3 -3,3 M 0,-5 V 5"
         style="stroke:#000000;stroke-width:0.5"
         id="path1668" />
    </marker>
    <pattern
       id="Hatch-5"
       patternUnits="userSpaceOnUse"
       width="8"
       height="8"
       x="0"
       y="0">
      <path
         d="M8 4 l-4,4"
         stroke="#000000"
         stroke-width="0.25"
         linecap="square"
         id="path1671" />
      <path
         d="M6 2 l-4,4"
         stroke="#000000"
         stroke-width="0.25"
         linecap="square"
         id="path1673" />
      <path
         d="M4 0 l-4,4"
         stroke="#000000"
         stroke-width="0.25"
         linecap="square"
         id="path1675" />
    </pattern>
    <symbol
       id="*MODEL_SPACE-67" />
    <symbol
       id="*PAPER_SPACE-0" />
    <marker
       id="DistanceX-0"
       orient="auto"
       refX="0.0"
       refY="0.0"
       style="overflow:visible">
      <path
         d="M 3,-3 L -3,3 M 0,-5 L  0,5"
         style="stroke:#000000; stroke-width:0.5"
         id="path1797" />
    </marker>
    <pattern
       id="Hatch-3"
       patternUnits="userSpaceOnUse"
       width="8"
       height="8"
       x="0"
       y="0">
      <path
         d="M8 4 l-4,4"
         stroke="#000000"
         stroke-width="0.25"
         linecap="square"
         id="path1800" />
      <path
         d="M6 2 l-4,4"
         stroke="#000000"
         stroke-width="0.25"
         linecap="square"
         id="path1802" />
      <path
         d="M4 0 l-4,4"
         stroke="#000000"
         stroke-width="0.25"
         linecap="square"
         id="path1804" />
    </pattern>
    <symbol
       id="*MODEL_SPACE-3" />
    <symbol
       id="*PAPER_SPACE-5" />
  </defs>
  <sodipodi:namedview
     id="base"
     pagecolor="#ffffff"
     bordercolor="#666666"
     borderopacity="1.0"
     inkscape:pageopacity="0.0"
     inkscape:pageshadow="2"
     inkscape:zoom="0.24748737"
     inkscape:cx="1106.69"
     inkscape:cy="1459.935"
     inkscape:document-units="mm"
     inkscape:current-layer="layer1"
     inkscape:document-rotation="0"
     showgrid="false"
     inkscape:snap-smooth-nodes="true"
     inkscape:window-width="1920"
     inkscape:window-height="1017"
     inkscape:window-x="-8"
     inkscape:window-y="-8"
     inkscape:window-maximized="1"
     fit-margin-top="0"
     fit-margin-left="0"
     fit-margin-right="0"
     fit-margin-bottom="0" />
  <metadata
     id="metadata5">
    <rdf:RDF>
      <cc:Work
         rdf:about="">
        <dc:format>image/svg+xml</dc:format>
        <dc:type
           rdf:resource="http://purl.org/dc/dcmitype/StillImage" />
        <dc:title></dc:title>
      </cc:Work>
    </rdf:RDF>
  </metadata>
  <g
     inkscape:label="Layer 1"
     inkscape:groupmode="layer"
     id="layer1"
     transform="translate(71.739437,380.57272)">
    <g
       inkscape:label="0"
       id="g961"
       transform="matrix(0.26458333,0,0,0.26458333,273.39285,-60.440469)">
      <path
         d="m 56.692913,839.05512 a 37.795276,37.795276 0 0 1 37.795276,37.79527 v 680.31501 a 37.795276,37.795276 0 0 1 -37.795276,37.7952 H -1266.1417 a 37.795276,37.795276 0 0 1 -37.7953,-37.7952 V 876.85039 a 37.795276,37.795276 0 0 1 37.7953,-37.79527 z"
         style="fill:none;stroke:#000000"
         id="path847" />
      <path
         d="m -1052.5984,1118.7402 a 5.6693,5.6693 0 1 0 -11.3386,0 5.6693,5.6693 0 1 0 11.3386,0 z"
         style="fill:none;stroke:#000000"
         id="path849" />
      <path
         d="m -1171.6535,1118.7402 a 5.6693,5.6693 0 1 0 -11.3386,0 5.6693,5.6693 0 1 0 11.3386,0 z"
         style="fill:none;stroke:#000000"
         id="path851" />
      <path
         d="m -1052.5984,1315.2756 a 5.6693,5.6693 0 1 0 -11.3386,0 5.6693,5.6693 0 1 0 11.3386,0 z"
         style="fill:none;stroke:#000000"
         id="path853" />
      <path
         d="m -933.54331,1315.2756 a 5.6692915,5.6692915 0 1 0 -11.33858,0 5.6692915,5.6692915 0 1 0 11.33858,0 z"
         style="fill:none;stroke:#000000"
         id="path855" />
      <path
         d="m -750.23622,1118.7402 a 5.6692915,5.6692915 0 1 0 -11.33858,0 5.6692915,5.6692915 0 1 0 11.33858,0 z"
         style="fill:none;stroke:#000000"
         id="path857" />
      <path
         d="m -869.29134,1118.7402 a 5.669291,5.669291 0 1 0 -11.33858,0 5.669291,5.669291 0 1 0 11.33858,0 z"
         style="fill:none;stroke:#000000"
         id="path859" />
      <path
         d="m -750.23622,1315.2756 a 5.6692915,5.6692915 0 1 0 -11.33858,0 5.6692915,5.6692915 0 1 0 11.33858,0 z"
         style="fill:none;stroke:#000000"
         id="path861" />
      <path
         d="m -631.1811,1315.2756 a 5.6692915,5.6692915 0 1 0 -11.33858,0 5.6692915,5.6692915 0 1 0 11.33858,0 z"
         style="fill:none;stroke:#000000"
         id="path863" />
      <path
         d="m -447.87402,1118.7402 a 5.669291,5.669291 0 1 0 -11.33858,0 5.669291,5.669291 0 1 0 11.33858,0 z"
         style="fill:none;stroke:#000000"
         id="path865" />
      <path
         d="m -566.92913,1118.7402 a 5.669295,5.669295 0 1 0 -11.33859,0 5.669295,5.669295 0 1 0 11.33859,0 z"
         style="fill:none;stroke:#000000"
         id="path867" />
      <path
         d="m -447.87402,1315.2756 a 5.669291,5.669291 0 1 0 -11.33858,0 5.669291,5.669291 0 1 0 11.33858,0 z"
         style="fill:none;stroke:#000000"
         id="path869" />
      <path
         d="m -328.8189,1315.2756 a 5.669291,5.669291 0 1 0 -11.33858,0 5.669291,5.669291 0 1 0 11.33858,0 z"
         style="fill:none;stroke:#000000"
         id="path871" />
      <path
         d="m -145.51181,1118.7402 a 5.6692915,5.6692915 0 1 0 -11.33858,0 5.6692915,5.6692915 0 1 0 11.33858,0 z"
         style="fill:none;stroke:#000000"
         id="path873" />
      <path
         d="m -264.56693,1118.7402 a 5.6692915,5.6692915 0 1 0 -11.33858,0 5.6692915,5.6692915 0 1 0 11.33858,0 z"
         style="fill:none;stroke:#000000"
         id="path875" />
      <path
         d="m -145.51181,1315.2756 a 5.6692915,5.6692915 0 1 0 -11.33858,0 5.6692915,5.6692915 0 1 0 11.33858,0 z"
         style="fill:none;stroke:#000000"
         id="path877" />
      <path
         d="m -26.456693,1315.2756 a 5.6692915,5.6692915 0 1 0 -11.338583,0 5.6692915,5.6692915 0 1 0 11.338583,0 z"
         style="fill:none;stroke:#000000"
         id="path879" />
      <path
         d="m -1183.0733,1401.0603 a 3.779528,3.779528 0 0 1 -0.2334,-5.9714 l 41.0666,-34.459 h 117.4038 l 28.21016,33.6196 a 3.779528,3.779528 0 0 1 -0.92763,5.6563 41.574803,41.574803 0 0 1 -21.64423,6.0785 h -148.5033 a 26.456693,26.456693 0 0 1 -15.372,-4.924 z"
         style="fill:none;stroke:#000000"
         id="path881" />
      <path
         d="m -1185.7362,1392.1936 a 3.779528,3.779528 0 0 1 -5.8401,-1.2668 26.456693,26.456693 0 0 1 -2.1798,-15.9934 l 24.2177,-137.3456 a 22.677165,22.677165 0 0 1 20.8408,-18.6902 l 23.5583,28.0757 -19.5302,110.7613 z"
         style="fill:none;stroke:#000000"
         id="path883" />
      <path
         d="m -933.82722,1032.9554 a 3.779528,3.779528 0 0 1 0.23344,5.9714 l -41.06665,34.459 h -117.40377 l -28.2102,-33.6195 a 3.779528,3.779528 0 0 1 0.9277,-5.6564 41.574803,41.574803 0 0 1 21.6442,-6.0784 h 148.50335 a 26.456693,26.456693 0 0 1 15.37193,4.9239 z"
         style="fill:none;stroke:#000000"
         id="path885" />
      <path
         d="m -912.75591,1381.4173 a 22.677165,22.677165 0 1 0 -45.35433,0 22.677165,22.677165 0 1 0 45.35433,0 z"
         style="fill:none;stroke:#000000"
         id="path887" />
      <path
         d="m -1158.4252,1052.5984 a 22.677165,22.677165 0 1 0 -45.3543,0 22.677165,22.677165 0 1 0 45.3543,0 z"
         style="fill:none;stroke:#000000"
         id="path889" />
      <path
         d="m -1149.4503,1215.1181 35.1249,-29.4732 19.3659,-109.8296 -28.2101,-33.6196 a 3.779528,3.779528 0 0 0 -5.7316,-0.069 41.574803,41.574803 0 0 0 -9.7445,20.2599 l -23.8225,135.104 a 15.11811,15.11811 0 0 0 13.0179,17.6272 z"
         style="fill:none;stroke:#000000"
         id="path891" />
      <path
         d="m -967.4502,1218.8976 a 15.11811,15.11811 0 0 1 13.01791,17.6272 l -23.82248,135.104 a 41.574803,41.574803 0 0 1 -9.74455,20.2599 3.779528,3.779528 0 0 1 -5.73153,-0.069 l -28.21015,-33.6195 19.3659,-109.8296 z"
         style="fill:none;stroke:#000000"
         id="path893" />
      <path
         d="m -1126.3211,1239.685 h 128.21754 l 26.748,-22.4442 -19.22385,-22.9101 h -128.21749 l -26.748,22.4442 z"
         style="fill:none;stroke:#000000"
         id="path895" />
      <path
         d="m -947.36212,1196.4279 a 22.677165,22.677165 0 0 1 -20.84077,18.6902 l -23.55831,-28.0757 19.53021,-110.7613 41.06665,-34.459 a 3.779528,3.779528 0 0 1 5.84014,1.2668 26.456693,26.456693 0 0 1 2.17981,15.9934 z"
         style="fill:none;stroke:#000000"
         id="path897" />
      <path
         d="m -880.71107,1401.0603 a 3.779528,3.779528 0 0 1 -0.23344,-5.9714 l 41.06665,-34.459 h 117.40379 l 28.21014,33.6196 a 3.779528,3.779528 0 0 1 -0.92763,5.6563 41.574803,41.574803 0 0 1 -21.6442,6.0785 h -148.50338 a 26.456693,26.456693 0 0 1 -15.37193,-4.924 z"
         style="fill:none;stroke:#000000"
         id="path899" />
      <path
         d="m -883.37395,1392.1936 a 3.779528,3.779528 0 0 1 -5.84014,-1.2668 26.456693,26.456693 0 0 1 -2.1798,-15.9934 l 24.21773,-137.3456 a 22.677165,22.677165 0 0 1 20.84076,-18.6902 l 23.55831,28.0757 -19.5302,110.7613 z"
         style="fill:none;stroke:#000000"
         id="path901" />
      <path
         d="m -631.46501,1032.9554 a 3.779528,3.779528 0 0 1 0.23344,5.9714 l -41.06665,34.459 h -117.40379 l -28.21014,-33.6195 a 3.779528,3.779528 0 0 1 0.92763,-5.6564 41.574803,41.574803 0 0 1 21.6442,-6.0784 h 148.50337 a 26.456693,26.456693 0 0 1 15.37194,4.9239 z"
         style="fill:none;stroke:#000000"
         id="path903" />
      <path
         d="m -610.3937,1381.4173 a 22.677165,22.677165 0 1 0 -45.35433,0 22.677165,22.677165 0 1 0 45.35433,0 z"
         style="fill:none;stroke:#000000"
         id="path905" />
      <path
         d="m -856.06299,1052.5984 a 22.677165,22.677165 0 1 0 -45.35433,0 22.677165,22.677165 0 1 0 45.35433,0 z"
         style="fill:none;stroke:#000000"
         id="path907" />
      <path
         d="m -847.08808,1215.1181 35.12486,-29.4732 19.36592,-109.8296 -28.21014,-33.6196 a 3.779528,3.779528 0 0 0 -5.73152,-0.069 41.574803,41.574803 0 0 0 -9.74455,20.2599 l -23.82249,135.104 a 15.11811,15.11811 0 0 0 13.01792,17.6272 z"
         style="fill:none;stroke:#000000"
         id="path909" />
      <path
         d="m -665.088,1218.8976 a 15.11811,15.11811 0 0 1 13.01792,17.6272 l -23.82249,135.104 a 41.574803,41.574803 0 0 1 -9.74455,20.2599 3.779528,3.779528 0 0 1 -5.73153,-0.069 l -28.21013,-33.6195 19.36592,-109.8296 z"
         style="fill:none;stroke:#000000"
         id="path911" />
      <path
         d="m -823.95887,1239.685 h 128.21751 l 26.748,-22.4442 -19.22385,-22.9101 h -128.21751 l -26.748,22.4442 z"
         style="fill:none;stroke:#000000"
         id="path913" />
      <path
         d="m -644.99992,1196.4279 a 22.677165,22.677165 0 0 1 -20.84076,18.6902 l -23.55832,-28.0757 19.53021,-110.7613 41.06665,-34.459 a 3.779528,3.779528 0 0 1 5.84014,1.2668 26.456693,26.456693 0 0 1 2.17981,15.9934 z"
         style="fill:none;stroke:#000000"
         id="path915" />
      <path
         d="m -578.34886,1401.0603 a 3.779528,3.779528 0 0 1 -0.23345,-5.9714 l 41.06666,-34.459 h 117.40379 l 28.21013,33.6196 a 3.779528,3.779528 0 0 1 -0.92763,5.6563 41.574803,41.574803 0 0 1 -21.64419,6.0785 h -148.50338 a 26.456693,26.456693 0 0 1 -15.37193,-4.924 z"
         style="fill:none;stroke:#000000"
         id="path917" />
      <path
         d="m -581.01174,1392.1936 a 3.779528,3.779528 0 0 1 -5.84014,-1.2668 26.456693,26.456693 0 0 1 -2.17981,-15.9934 l 24.21773,-137.3456 a 22.677165,22.677165 0 0 1 20.84077,-18.6902 l 23.55831,28.0757 -19.53021,110.7613 z"
         style="fill:none;stroke:#000000"
         id="path919" />
      <path
         d="m -329.10281,1032.9554 a 3.779528,3.779528 0 0 1 0.23344,5.9714 l -41.06665,34.459 h -117.40379 l -28.21014,-33.6195 a 3.779528,3.779528 0 0 1 0.92764,-5.6564 41.574803,41.574803 0 0 1 21.64419,-6.0784 h 148.50338 a 26.456693,26.456693 0 0 1 15.37193,4.9239 z"
         style="fill:none;stroke:#000000"
         id="path921" />
      <path
         d="m -308.0315,1381.4173 a 22.677165,22.677165 0 1 0 -45.35433,0 22.677165,22.677165 0 1 0 45.35433,0 z"
         style="fill:none;stroke:#000000"
         id="path923" />
      <path
         d="m -553.70079,1052.5984 a 22.677165,22.677165 0 1 0 -45.35433,0 22.677165,22.677165 0 1 0 45.35433,0 z"
         style="fill:none;stroke:#000000"
         id="path925" />
      <path
         d="m -544.72588,1215.1181 35.12486,-29.4732 19.36593,-109.8296 -28.21014,-33.6196 a 3.779528,3.779528 0 0 0 -5.73153,-0.069 41.574803,41.574803 0 0 0 -9.74455,20.2599 l -23.82248,135.104 a 15.11811,15.11811 0 0 0 13.01791,17.6272 z"
         style="fill:none;stroke:#000000"
         id="path927" />
      <path
         d="m -362.72579,1218.8976 a 15.11811,15.11811 0 0 1 13.01791,17.6272 l -23.82248,135.104 a 41.574803,41.574803 0 0 1 -9.74456,20.2599 3.779528,3.779528 0 0 1 -5.73152,-0.069 l -28.21014,-33.6195 19.36592,-109.8296 z"
         style="fill:none;stroke:#000000"
         id="path929" />
      <path
         d="m -521.59667,1239.685 h 128.21751 l 26.74801,-22.4442 -19.22385,-22.9101 h -128.21752 l -26.748,22.4442 z"
         style="fill:none;stroke:#000000"
         id="path931" />
      <path
         d="m -342.63772,1196.4279 a 22.677165,22.677165 0 0 1 -20.84076,18.6902 l -23.55831,-28.0757 19.5302,-110.7613 41.06666,-34.459 a 3.779528,3.779528 0 0 1 5.84014,1.2668 26.456693,26.456693 0 0 1 2.17981,15.9934 z"
         style="fill:none;stroke:#000000"
         id="path933" />
      <path
         d="m -275.98666,1401.0603 a 3.779528,3.779528 0 0 1 -0.23344,-5.9714 l 41.06665,-34.459 h 117.40379 l 28.210138,33.6196 a 3.779528,3.779528 0 0 1 -0.927632,5.6563 41.574803,41.574803 0 0 1 -21.644196,6.0785 h -148.50338 a 26.456693,26.456693 0 0 1 -15.37193,-4.924 z"
         style="fill:none;stroke:#000000"
         id="path935" />
      <path
         d="m -278.64954,1392.1936 a 3.779528,3.779528 0 0 1 -5.84014,-1.2668 26.456693,26.456693 0 0 1 -2.1798,-15.9934 l 24.21773,-137.3456 a 22.677165,22.677165 0 0 1 20.84076,-18.6902 l 23.55831,28.0757 -19.5302,110.7613 z"
         style="fill:none;stroke:#000000"
         id="path937" />
      <path
         d="m -26.740604,1032.9554 a 3.779528,3.779528 0 0 1 0.233443,5.9714 l -41.066653,34.459 H -184.9776 l -28.21014,-33.6195 a 3.779528,3.779528 0 0 1 0.92763,-5.6564 41.574803,41.574803 0 0 1 21.64419,-6.0784 h 148.503384 a 26.456693,26.456693 0 0 1 15.371932,4.9239 z"
         style="fill:none;stroke:#000000"
         id="path939" />
      <path
         d="m -5.669291,1381.4173 a 22.677165,22.677165 0 1 0 -45.354331,0 22.677165,22.677165 0 1 0 45.354331,0 z"
         style="fill:none;stroke:#000000"
         id="path941" />
      <path
         d="m -251.33858,1052.5984 a 22.677165,22.677165 0 1 0 -45.35433,0 22.677165,22.677165 0 1 0 45.35433,0 z"
         style="fill:none;stroke:#000000"
         id="path943" />
      <path
         d="m -242.36367,1215.1181 35.12486,-29.4732 19.36592,-109.8296 -28.21014,-33.6196 a 3.779528,3.779528 0 0 0 -5.73152,-0.069 41.574803,41.574803 0 0 0 -9.74455,20.2599 l -23.82249,135.104 a 15.11811,15.11811 0 0 0 13.01792,17.6272 z"
         style="fill:none;stroke:#000000"
         id="path945" />
      <path
         d="m -60.36359,1218.8976 a 15.11811,15.11811 0 0 1 13.017915,17.6272 l -23.822484,135.104 a 41.574803,41.574803 0 0 1 -9.744551,20.2599 3.779528,3.779528 0 0 1 -5.731526,-0.069 l -28.210134,-33.6195 19.365917,-109.8296 z"
         style="fill:none;stroke:#000000"
         id="path947" />
      <path
         d="m -219.23446,1239.685 h 128.217509 l 26.748002,-22.4442 -19.223849,-22.9101 H -211.71031 l -26.748,22.4442 z"
         style="fill:none;stroke:#000000"
         id="path949" />
      <path
         d="m -40.27551,1196.4279 a 22.677165,22.677165 0 0 1 -20.840764,18.6902 l -23.558312,-28.0757 19.530205,-110.7613 41.066654,-34.459 a 3.779528,3.779528 0 0 1 5.84014,1.2668 26.456693,26.456693 0 0 1 2.179807,15.9934 z"
         style="fill:none;stroke:#000000"
         id="path951" />
      <path
         d="m 39.685039,1534.4882 a 5.669291,5.669291 0 1 0 -11.338582,0 5.669291,5.669291 0 1 0 11.338582,0 z"
         style="fill:none;stroke:#000000"
         id="path953" />
      <path
         d="m 39.685039,899.52756 a 5.669291,5.669291 0 1 0 -11.338582,0 5.669291,5.669291 0 1 0 11.338582,0 z"
         style="fill:none;stroke:#000000"
         id="path955" />
      <path
         d="m -1237.7953,1534.4882 a 5.6693,5.6693 0 1 0 -11.3386,0 5.6693,5.6693 0 1 0 11.3386,0 z"
         style="fill:none;stroke:#000000"
         id="path957" />
      <path
         d="m -1237.7953,899.52756 a 5.6693,5.6693 0 1 0 -11.3386,0 5.6693,5.6693 0 1 0 11.3386,0 z"
         style="fill:none;stroke:#000000"
         id="path959" />
    </g>
    <g
       inkscape:label="0"
       id="g1211"
       transform="matrix(0.26458333,0,0,0.26458333,273.39285,-260.44046)">
      <path
         d="m -1239.685,1365.0725 10.3937,-6.0008 v -12.0016 l -10.3937,-6.0008 -10.3937,6.0008 v 12.0016 z"
         style="fill:none;stroke:#000000"
         id="path1057" />
      <path
         d="m -1243.4646,1315.2756 v -11.3386 h -30.2362 v 11.3386 z"
         style="fill:none;stroke:#000000"
         id="path1059" />
      <path
         d="M 64.251969,1315.2756 V 1303.937 H 34.015748 v 11.3386 z"
         style="fill:none;stroke:#000000"
         id="path1061" />
      <path
         d="m -1209.4488,1475.9055 v 32.126 H 0 v -83.1496 h -1190.5512 v -17.0079 h -103.937 v 68.0315 z"
         style="fill:none;stroke:#000000"
         id="path1063" />
      <path
         d="m -1039.3701,895.74803 a 18.89765,18.89765 0 0 1 -37.7953,10e-6 v -18.89765 a 18.89765,18.89765 0 0 1 37.7953,0 z"
         style="fill:none;stroke:#000000"
         id="path1065" />
      <path
         d="m -132.28346,895.74803 a 18.89764,18.89764 0 0 1 -37.79528,0 v -18.89764 a 18.89764,18.89764 0 0 1 37.79528,0 z"
         style="fill:none;stroke:#000000"
         id="path1067" />
      <path
         d="m -585.82677,895.74803 a 18.89764,18.89764 0 0 1 -37.79528,0 v -18.89764 a 18.89764,18.89764 0 0 1 37.79528,0 z"
         style="fill:none;stroke:#000000"
         id="path1069" />
      <path
         d="m -1266.1417,1594.9606 c -20.8737,0 -37.7953,-16.9215 -37.7953,-37.7952 V 876.85039 c 0,-20.87376 16.9215,-37.79528 37.7953,-37.79527 H 56.692913 c 20.873752,0 37.795273,16.92152 37.795276,37.79527 v 680.31501 c -4.2e-5,20.8737 -16.921551,37.7952 -37.795276,37.7952"
         style="fill:none;stroke:#000000"
         id="path1071"
         sodipodi:nodetypes="ccccsscc" />
      <path
         d="m -1052.5984,1118.7402 a 5.6693,5.6693 0 1 0 -11.3386,0 5.6693,5.6693 0 1 0 11.3386,0 z"
         style="fill:none;stroke:#000000"
         id="path1073" />
      <path
         d="m -1052.5984,1315.2756 a 5.6693,5.6693 0 1 0 -11.3386,0 5.6693,5.6693 0 1 0 11.3386,0 z"
         style="fill:none;stroke:#000000"
         id="path1075" />
      <path
         d="m -1171.6535,1118.7402 a 5.6693,5.6693 0 1 0 -11.3386,0 5.6693,5.6693 0 1 0 11.3386,0 z"
         style="fill:none;stroke:#000000"
         id="path1077" />
      <path
         d="m -1196.9764,1232.126 h 7.5591 v -30.2362 h -7.5591 z"
         style="fill:none;stroke:#000000"
         id="path1079" />
      <path
         d="m -933.54331,1315.2756 a 5.6692915,5.6692915 0 1 0 -11.33858,0 5.6692915,5.6692915 0 1 0 11.33858,0 z"
         style="fill:none;stroke:#000000"
         id="path1081" />
      <path
         d="m -447.87402,1118.7402 a 5.669291,5.669291 0 1 0 -11.33858,0 5.669291,5.669291 0 1 0 11.33858,0 z"
         style="fill:none;stroke:#000000"
         id="path1083" />
      <path
         d="m -447.87402,1315.2756 a 5.669291,5.669291 0 1 0 -11.33858,0 5.669291,5.669291 0 1 0 11.33858,0 z"
         style="fill:none;stroke:#000000"
         id="path1085" />
      <path
         d="m -566.92913,1118.7402 a 5.669295,5.669295 0 1 0 -11.33859,0 5.669295,5.669295 0 1 0 11.33859,0 z"
         style="fill:none;stroke:#000000"
         id="path1087" />
      <path
         d="m -592.25197,1232.126 h 7.55906 v -30.2362 h -7.55906 z"
         style="fill:none;stroke:#000000"
         id="path1089" />
      <path
         d="m -328.8189,1315.2756 a 5.669291,5.669291 0 1 0 -11.33858,0 5.669291,5.669291 0 1 0 11.33858,0 z"
         style="fill:none;stroke:#000000"
         id="path1091" />
      <path
         d="m -1237.7953,899.52756 a 5.6693,5.6693 0 1 0 -11.3386,0 5.6693,5.6693 0 1 0 11.3386,0 z"
         style="fill:none;stroke:#000000"
         id="path1093" />
      <path
         d="m -1237.7953,1534.4882 a 5.6693,5.6693 0 1 0 -11.3386,0 5.6693,5.6693 0 1 0 11.3386,0 z"
         style="fill:none;stroke:#000000"
         id="path1095" />
      <path
         d="m 39.685039,1534.4882 a 5.669291,5.669291 0 1 0 -11.338582,0 5.669291,5.669291 0 1 0 11.338582,0 z"
         style="fill:none;stroke:#000000"
         id="path1097" />
      <path
         d="m 39.685039,899.52756 a 5.669291,5.669291 0 1 0 -11.338582,0 5.669291,5.669291 0 1 0 11.338582,0 z"
         style="fill:none;stroke:#000000"
         id="path1099" />
      <path
         d="m -34.771654,1201.8898 h -7.199169 a 22.677165,22.677165 0 0 0 1.695313,-5.4619 l 24.21773,-137.3456 a 26.456693,26.456693 0 0 0 -2.179807,-15.9934 3.779528,3.779528 0 0 0 -5.84014,-1.2668 l -41.066654,34.459 -19.530205,110.7613 23.558312,28.0757 a 22.677165,22.677165 0 0 0 18.785565,-12.4753 v 29.4832 h 7.559055 z"
         style="fill:none;stroke:#000000"
         id="path1101" />
      <path
         d="m -219.23446,1239.685 h 128.217509 l 26.748002,-22.4442 -19.223849,-22.9101 H -211.71031 l -26.748,22.4442 z"
         style="fill:none;stroke:#000000"
         id="path1103" />
      <path
         d="m -60.36359,1218.8976 a 15.11811,15.11811 0 0 1 13.017915,17.6272 l -23.822484,135.104 a 41.574803,41.574803 0 0 1 -9.744551,20.2599 3.779528,3.779528 0 0 1 -5.731526,-0.069 l -28.210134,-33.6195 19.365917,-109.8296 z"
         style="fill:none;stroke:#000000"
         id="path1105" />
      <path
         d="m -242.36367,1215.1181 35.12486,-29.4732 19.36592,-109.8296 -28.21014,-33.6196 a 3.779528,3.779528 0 0 0 -5.73152,-0.069 41.574803,41.574803 0 0 0 -9.74455,20.2599 l -23.82249,135.104 a 15.11811,15.11811 0 0 0 13.01792,17.6272 z"
         style="fill:none;stroke:#000000"
         id="path1107" />
      <path
         d="m -251.33858,1052.5984 a 22.677165,22.677165 0 1 0 -45.35433,0 22.677165,22.677165 0 1 0 45.35433,0 z"
         style="fill:none;stroke:#000000"
         id="path1109" />
      <path
         d="m -5.669291,1381.4173 a 22.677165,22.677165 0 1 0 -45.354331,0 22.677165,22.677165 0 1 0 45.354331,0 z"
         style="fill:none;stroke:#000000"
         id="path1111" />
      <path
         d="m -26.740604,1032.9554 a 3.779528,3.779528 0 0 1 0.233443,5.9714 l -41.066653,34.459 H -184.9776 l -28.21014,-33.6195 a 3.779528,3.779528 0 0 1 0.92763,-5.6564 41.574803,41.574803 0 0 1 21.64419,-6.0784 h 148.503384 a 26.456693,26.456693 0 0 1 15.371932,4.9239 z"
         style="fill:none;stroke:#000000"
         id="path1113" />
      <path
         d="m -278.64954,1392.1936 a 3.779528,3.779528 0 0 1 -5.84014,-1.2668 26.456693,26.456693 0 0 1 -2.1798,-15.9934 l 24.21773,-137.3456 a 22.677165,22.677165 0 0 1 20.84076,-18.6902 l 23.55831,28.0757 -19.5302,110.7613 z"
         style="fill:none;stroke:#000000"
         id="path1115" />
      <path
         d="m -275.98666,1401.0603 a 3.779528,3.779528 0 0 1 -0.23344,-5.9714 l 41.06665,-34.459 h 117.40379 l 28.210138,33.6196 a 3.779528,3.779528 0 0 1 -0.927632,5.6563 41.574803,41.574803 0 0 1 -21.644196,6.0785 h -148.50338 a 26.456693,26.456693 0 0 1 -15.37193,-4.924 z"
         style="fill:none;stroke:#000000"
         id="path1117" />
      <path
         d="m -337.13386,1201.8898 h -7.19917 a 22.677165,22.677165 0 0 0 1.69531,-5.4619 l 24.21774,-137.3456 a 26.456693,26.456693 0 0 0 -2.17981,-15.9934 3.779528,3.779528 0 0 0 -5.84014,-1.2668 l -41.06666,34.459 -19.5302,110.7613 23.55831,28.0757 a 22.677165,22.677165 0 0 0 18.78557,-12.4753 v 29.4832 h 7.55905 z"
         style="fill:none;stroke:#000000"
         id="path1119" />
      <path
         d="m -521.59667,1239.685 h 128.21751 l 26.74801,-22.4442 -19.22385,-22.9101 h -128.21752 l -26.748,22.4442 z"
         style="fill:none;stroke:#000000"
         id="path1121" />
      <path
         d="m -362.72579,1218.8976 a 15.11811,15.11811 0 0 1 13.01791,17.6272 l -23.82248,135.104 a 41.574803,41.574803 0 0 1 -9.74456,20.2599 3.779528,3.779528 0 0 1 -5.73152,-0.069 l -28.21014,-33.6195 19.36592,-109.8296 z"
         style="fill:none;stroke:#000000"
         id="path1123" />
      <path
         d="m -544.72588,1215.1181 35.12486,-29.4732 19.36593,-109.8296 -28.21014,-33.6196 a 3.779528,3.779528 0 0 0 -5.73153,-0.069 41.574803,41.574803 0 0 0 -9.74455,20.2599 l -23.82248,135.104 a 15.11811,15.11811 0 0 0 13.01791,17.6272 z"
         style="fill:none;stroke:#000000"
         id="path1125" />
      <path
         d="m -553.70079,1052.5984 a 22.677165,22.677165 0 1 0 -45.35433,0 22.677165,22.677165 0 1 0 45.35433,0 z"
         style="fill:none;stroke:#000000"
         id="path1127" />
      <path
         d="m -308.0315,1381.4173 a 22.677165,22.677165 0 1 0 -45.35433,0 22.677165,22.677165 0 1 0 45.35433,0 z"
         style="fill:none;stroke:#000000"
         id="path1129" />
      <path
         d="m -329.10281,1032.9554 a 3.779528,3.779528 0 0 1 0.23344,5.9714 l -41.06665,34.459 h -117.40379 l -28.21014,-33.6195 a 3.779528,3.779528 0 0 1 0.92764,-5.6564 41.574803,41.574803 0 0 1 21.64419,-6.0784 h 148.50338 a 26.456693,26.456693 0 0 1 15.37193,4.9239 z"
         style="fill:none;stroke:#000000"
         id="path1131" />
      <path
         d="m -581.01174,1392.1936 a 3.779528,3.779528 0 0 1 -5.84014,-1.2668 26.456693,26.456693 0 0 1 -2.17981,-15.9934 l 24.21773,-137.3456 a 22.677165,22.677165 0 0 1 20.84077,-18.6902 l 23.55831,28.0757 -19.53021,110.7613 z"
         style="fill:none;stroke:#000000"
         id="path1133" />
      <path
         d="m -578.34886,1401.0603 a 3.779528,3.779528 0 0 1 -0.23345,-5.9714 l 41.06666,-34.459 h 117.40379 l 28.21013,33.6196 a 3.779528,3.779528 0 0 1 -0.92763,5.6563 41.574803,41.574803 0 0 1 -21.64419,6.0785 h -148.50338 a 26.456693,26.456693 0 0 1 -15.37193,-4.924 z"
         style="fill:none;stroke:#000000"
         id="path1135" />
      <path
         d="m -639.49606,1201.8898 h -7.19917 a 22.677165,22.677165 0 0 0 1.69531,-5.4619 l 24.21773,-137.3456 a 26.456693,26.456693 0 0 0 -2.17981,-15.9934 3.779528,3.779528 0 0 0 -5.84014,-1.2668 l -41.06665,34.459 -19.53021,110.7613 23.55832,28.0757 a 22.677165,22.677165 0 0 0 18.78556,-12.4753 v 29.4832 h 7.55906 z"
         style="fill:none;stroke:#000000"
         id="path1137" />
      <path
         d="m -823.95887,1239.685 h 128.21751 l 26.748,-22.4442 -19.22385,-22.9101 h -128.21751 l -26.748,22.4442 z"
         style="fill:none;stroke:#000000"
         id="path1139" />
      <path
         d="m -665.088,1218.8976 a 15.11811,15.11811 0 0 1 13.01792,17.6272 l -23.82249,135.104 a 41.574803,41.574803 0 0 1 -9.74455,20.2599 3.779528,3.779528 0 0 1 -5.73153,-0.069 l -28.21013,-33.6195 19.36592,-109.8296 z"
         style="fill:none;stroke:#000000"
         id="path1141" />
      <path
         d="m -847.08808,1215.1181 35.12486,-29.4732 19.36592,-109.8296 -28.21014,-33.6196 a 3.779528,3.779528 0 0 0 -5.73152,-0.069 41.574803,41.574803 0 0 0 -9.74455,20.2599 l -23.82249,135.104 a 15.11811,15.11811 0 0 0 13.01792,17.6272 z"
         style="fill:none;stroke:#000000"
         id="path1143" />
      <path
         d="m -856.06299,1052.5984 a 22.677165,22.677165 0 1 0 -45.35433,0 22.677165,22.677165 0 1 0 45.35433,0 z"
         style="fill:none;stroke:#000000"
         id="path1145" />
      <path
         d="m -610.3937,1381.4173 a 22.677165,22.677165 0 1 0 -45.35433,0 22.677165,22.677165 0 1 0 45.35433,0 z"
         style="fill:none;stroke:#000000"
         id="path1147" />
      <path
         d="m -631.46501,1032.9554 a 3.779528,3.779528 0 0 1 0.23344,5.9714 l -41.06665,34.459 h -117.40379 l -28.21014,-33.6195 a 3.779528,3.779528 0 0 1 0.92763,-5.6564 41.574803,41.574803 0 0 1 21.6442,-6.0784 h 148.50337 a 26.456693,26.456693 0 0 1 15.37194,4.9239 z"
         style="fill:none;stroke:#000000"
         id="path1149" />
      <path
         d="m -883.37395,1392.1936 a 3.779528,3.779528 0 0 1 -5.84014,-1.2668 26.456693,26.456693 0 0 1 -2.1798,-15.9934 l 24.21773,-137.3456 a 22.677165,22.677165 0 0 1 20.84076,-18.6902 l 23.55831,28.0757 -19.5302,110.7613 z"
         style="fill:none;stroke:#000000"
         id="path1151" />
      <path
         d="m -880.71107,1401.0603 a 3.779528,3.779528 0 0 1 -0.23344,-5.9714 l 41.06665,-34.459 h 117.40379 l 28.21014,33.6196 a 3.779528,3.779528 0 0 1 -0.92763,5.6563 41.574803,41.574803 0 0 1 -21.6442,6.0785 h -148.50338 a 26.456693,26.456693 0 0 1 -15.37193,-4.924 z"
         style="fill:none;stroke:#000000"
         id="path1153" />
      <path
         d="m -941.85827,1201.8898 h -7.19917 a 22.677165,22.677165 0 0 0 1.69532,-5.4619 l 24.21773,-137.3456 a 26.456693,26.456693 0 0 0 -2.17981,-15.9934 3.779528,3.779528 0 0 0 -5.84014,-1.2668 l -41.06665,34.459 -19.53021,110.7613 23.55831,28.0757 a 22.677165,22.677165 0 0 0 18.78557,-12.4753 v 29.4832 h 7.55905 z"
         style="fill:none;stroke:#000000"
         id="path1155" />
      <path
         d="m -1126.3211,1239.685 h 128.21754 l 26.748,-22.4442 -19.22385,-22.9101 h -128.21749 l -26.748,22.4442 z"
         style="fill:none;stroke:#000000"
         id="path1157" />
      <path
         d="m -967.4502,1218.8976 a 15.11811,15.11811 0 0 1 13.01791,17.6272 l -23.82248,135.104 a 41.574803,41.574803 0 0 1 -9.74455,20.2599 3.779528,3.779528 0 0 1 -5.73153,-0.069 l -28.21015,-33.6195 19.3659,-109.8296 z"
         style="fill:none;stroke:#000000"
         id="path1159" />
      <path
         d="m -1149.4503,1215.1181 35.1249,-29.4732 19.3659,-109.8296 -28.2101,-33.6196 a 3.779528,3.779528 0 0 0 -5.7316,-0.069 41.574803,41.574803 0 0 0 -9.7445,20.2599 l -23.8225,135.104 a 15.11811,15.11811 0 0 0 13.0179,17.6272 z"
         style="fill:none;stroke:#000000"
         id="path1161" />
      <path
         d="m -1158.4252,1052.5984 a 22.677165,22.677165 0 1 0 -45.3543,0 22.677165,22.677165 0 1 0 45.3543,0 z"
         style="fill:none;stroke:#000000"
         id="path1163" />
      <path
         d="m -912.75591,1381.4173 a 22.677165,22.677165 0 1 0 -45.35433,0 22.677165,22.677165 0 1 0 45.35433,0 z"
         style="fill:none;stroke:#000000"
         id="path1165" />
      <path
         d="m -933.82722,1032.9554 a 3.779528,3.779528 0 0 1 0.23344,5.9714 l -41.06665,34.459 h -117.40377 l -28.2102,-33.6195 a 3.779528,3.779528 0 0 1 0.9277,-5.6564 41.574803,41.574803 0 0 1 21.6442,-6.0784 h 148.50335 a 26.456693,26.456693 0 0 1 15.37193,4.9239 z"
         style="fill:none;stroke:#000000"
         id="path1167" />
      <path
         d="m -1185.7362,1392.1936 a 3.779528,3.779528 0 0 1 -5.8401,-1.2668 26.456693,26.456693 0 0 1 -2.1798,-15.9934 l 24.2177,-137.3456 a 22.677165,22.677165 0 0 1 20.8408,-18.6902 l 23.5583,28.0757 -19.5302,110.7613 z"
         style="fill:none;stroke:#000000"
         id="path1169" />
      <path
         d="m -1183.0733,1401.0603 a 3.779528,3.779528 0 0 1 -0.2334,-5.9714 l 41.0666,-34.459 h 117.4038 l 28.21016,33.6196 a 3.779528,3.779528 0 0 1 -0.92763,5.6563 41.574803,41.574803 0 0 1 -21.64423,6.0785 h -148.5033 a 26.456693,26.456693 0 0 1 -15.372,-4.924 z"
         style="fill:none;stroke:#000000"
         id="path1171" />
      <path
         d="m -26.456693,1315.2756 a 5.6692915,5.6692915 0 1 0 -11.338583,0 5.6692915,5.6692915 0 1 0 11.338583,0 z"
         style="fill:none;stroke:#000000"
         id="path1173" />
      <path
         d="m -289.88976,1232.126 h 7.55905 v -30.2362 h -7.55905 z"
         style="fill:none;stroke:#000000"
         id="path1175" />
      <path
         d="m -264.56693,1118.7402 a 5.6692915,5.6692915 0 1 0 -11.33858,0 5.6692915,5.6692915 0 1 0 11.33858,0 z"
         style="fill:none;stroke:#000000"
         id="path1177" />
      <path
         d="m -145.51181,1315.2756 a 5.6692915,5.6692915 0 1 0 -11.33858,0 5.6692915,5.6692915 0 1 0 11.33858,0 z"
         style="fill:none;stroke:#000000"
         id="path1179" />
      <path
         d="m -145.51181,1118.7402 a 5.6692915,5.6692915 0 1 0 -11.33858,0 5.6692915,5.6692915 0 1 0 11.33858,0 z"
         style="fill:none;stroke:#000000"
         id="path1181" />
      <path
         d="m -631.1811,1315.2756 a 5.6692915,5.6692915 0 1 0 -11.33858,0 5.6692915,5.6692915 0 1 0 11.33858,0 z"
         style="fill:none;stroke:#000000"
         id="path1183" />
      <path
         d="m -894.61417,1232.126 h 7.55905 v -30.2362 h -7.55905 z"
         style="fill:none;stroke:#000000"
         id="path1185" />
      <path
         d="m -869.29134,1118.7402 a 5.669291,5.669291 0 1 0 -11.33858,0 5.669291,5.669291 0 1 0 11.33858,0 z"
         style="fill:none;stroke:#000000"
         id="path1187" />
      <path
         d="m -750.23622,1315.2756 a 5.6692915,5.6692915 0 1 0 -11.33858,0 5.6692915,5.6692915 0 1 0 11.33858,0 z"
         style="fill:none;stroke:#000000"
         id="path1189" />
      <path
         d="m -750.23622,1118.7402 a 5.6692915,5.6692915 0 1 0 -11.33858,0 5.6692915,5.6692915 0 1 0 11.33858,0 z"
         style="fill:none;stroke:#000000"
         id="path1191" />
      <path
         d="m -1209.4488,925.98425 v 83.14965 H 0 v -83.14965 z"
         style="fill:none;stroke:#000000"
         id="path1193" />
      <path
         d="m -585.82677,1557.1654 v -18.8977 a 18.89764,18.89764 0 0 0 -37.79528,0 v 18.8977 a 18.89764,18.89764 0 0 0 37.79528,0 z"
         style="fill:none;stroke:#000000"
         id="path1195" />
      <path
         d="m -1039.3701,1557.1654 v -18.8977 a 18.89765,18.89765 0 0 0 -37.7953,0 v 18.8977 a 18.89765,18.89765 0 0 0 37.7953,0 z"
         style="fill:none;stroke:#000000"
         id="path1197" />
      <path
         d="m -132.28346,1557.1654 v -18.8977 a 18.89764,18.89764 0 0 0 -37.79528,0 v 18.8977 a 18.89764,18.89764 0 0 0 37.79528,0 z"
         style="fill:none;stroke:#000000"
         id="path1199" />
      <path
         d="m -1250.0787,1086.9457 10.3937,6.0008 10.3937,-6.0008 v -12.0016 l -10.3937,-6.0008 -10.3937,6.0008 z"
         style="fill:none;stroke:#000000"
         id="path1201" />
      <path
         d="m 19.84252,1359.0717 10.3937,6.0008 10.393701,-6.0008 v -12.0016 l -10.393701,-6.0008 -10.3937,6.0008 z"
         style="fill:none;stroke:#000000"
         id="path1203" />
      <path
         d="m 19.84252,1086.9457 10.3937,6.0008 10.393701,-6.0008 v -12.0016 l -10.393701,-6.0008 -10.3937,6.0008 z"
         style="fill:none;stroke:#000000"
         id="path1205" />
      <path
         d="m -1273.7008,1118.7402 v 11.3385 h 30.2362 v -11.3385 z"
         style="fill:none;stroke:#000000"
         id="path1207" />
      <path
         d="m 34.015748,1118.7402 v 11.3385 h 30.236221 v -11.3385 z"
         style="fill:none;stroke:#000000"
         id="path1209" />
    </g>
    <g
       id="g1468"
       transform="translate(4.3468788,-10.180721)">
      <path
         d="m 224.04597,-264.25972 v 5 a 5.0000005,5.0000005 0 0 0 10,0 v -5 a 5.0000005,5.0000005 0 0 0 -10,0 z"
         style="fill:none;stroke:#000000;stroke-width:0.264583"
         id="path1333" />
      <path
         d="m 104.04597,-264.25972 v 5 a 5.0000005,5.0000005 0 0 0 10,0 v -5 a 5.0000005,5.0000005 0 0 0 -10,0 z"
         style="fill:none;stroke:#000000;stroke-width:0.264583"
         id="path1335" />
      <path
         d="m -15.954038,-264.25972 v 5 a 5.0000032,5.0000032 0 0 0 10.0000058,0 v -5 a 5.0000032,5.0000032 0 0 0 -10.0000058,0 z"
         style="fill:none;stroke:#000000;stroke-width:0.264583"
         id="path1337" />
      <path
         d="m -58.454032,-258.25972 a 1.5000025,1.5000025 0 1 0 -3.000005,0 1.5000025,1.5000025 0 1 0 3.000005,0 z"
         style="fill:none;stroke:#000000;stroke-width:0.264583"
         id="path1339" />
      <path
         d="m 279.54597,-258.25972 a 1.5,1.5 0 1 0 -3,0 1.5,1.5 0 1 0 3,0 z"
         style="fill:none;stroke:#000000;stroke-width:0.264583"
         id="path1341" />
      <path
         d="m 290.04597,-251.25972 v -2 h -4 v 2 H -67.954029 v -2 h -3.999997 v 2 h -3.999998 v -13 c 0,-5.52285 4.477157,-10 10.000007,-10 H 284.04597 c 5.52285,0 10,4.47715 10,10 v 13"
         style="fill:none;stroke:#000000;stroke-width:0.264583"
         id="path1343"
         sodipodi:nodetypes="cccccccccscssc" />
    </g>
    <g
       id="g1482"
       transform="rotate(90,220.30977,-381.17664)">
      <path
         d="m 294.04597,-97.259724 h -4 v 2.000012 h -4 v -2.000012 h -17 m 0,-66.999986 5,-5.00002 h 10 v -10 h -10 l -5,-4.99999 m 0,-67 h 17 v -2 h 4 v 2 h 4"
         style="fill:none;stroke:#000000;stroke-width:0.264583"
         id="path1345"
         sodipodi:nodetypes="cccccccccccccccccc" />
      <path
         d="m 286.04597,-148.25972 v -3.00001 h -8 v 3.00001 z"
         style="fill:none;stroke:#000000;stroke-width:0.264583"
         id="path1347" />
      <path
         d="m 278.04597,-200.25971 v 2.99998 h 8 v -2.99998 z"
         style="fill:none;stroke:#000000;stroke-width:0.264583"
         id="path1349" />
      <path
         d="m 278.54597,-138.25972 a 1.5,1.5 0 1 0 -3,0 1.5,1.5 0 1 0 3,0 z"
         style="fill:none;stroke:#000000;stroke-width:0.264583"
         id="path1351" />
      <path
         d="m 278.54597,-210.25972 a 1.5,1.5 0 1 0 -3,0 1.5,1.5 0 1 0 3,0 z"
         style="fill:none;stroke:#000000;stroke-width:0.264583"
         id="path1353" />
    </g>
    <g
       id="g1475"
       transform="rotate(-90,-18.870941,-364.52351)">
      <path
         d="m -57.454013,-138.25972 a 1.5000025,1.5000025 0 1 0 -3.000005,0 1.5000025,1.5000025 0 1 0 3.000005,0 z"
         style="fill:none;stroke:#000000;stroke-width:0.264583"
         id="path1355" />
      <path
         d="m -67.954029,-151.25973 v 3.00001 h 7.999994 v -3.00001 z"
         style="fill:none;stroke:#000000;stroke-width:0.264583"
         id="path1357" />
      <path
         d="m -57.454013,-210.25972 a 1.5000025,1.5000025 0 1 0 -3.000005,0 1.5000025,1.5000025 0 1 0 3.000005,0 z"
         style="fill:none;stroke:#000000;stroke-width:0.264583"
         id="path1359" />
      <path
         d="m -59.954035,-197.25973 v -2.99998 h -7.999994 v 2.99998 z"
         style="fill:none;stroke:#000000;stroke-width:0.264583"
         id="path1361" />
      <path
         d="m -75.954024,-251.25972 h 3.999998 v -2 m 3.999997,0 v 2 h 17.000008 v 67 l -5.000016,4.99999 h -9.99998 v 10 h 9.99998 l 5.000016,5.00002 m 0,31.99998 h -21.000005 v 13.50002 h -3.999998"
         style="fill:none;stroke:#000000;stroke-width:0.264583"
         id="path1363"
         sodipodi:nodetypes="cccccccccccccccc" />
    </g>
    <g
       id="g1491"
       transform="translate(4.3468788,-210.18071)">
      <path
         d="m -71.954026,-97.259724 v 2.000012 h 3.999997 v -2.000012 H 286.04597 v 2.000012 h 4 v -2.000012 h 4 v 13.000011 c -1e-5,5.52284 -4.47716,9.99998 -10,9.99998 m -349.999987,0 c -5.522842,4e-6 -9.999996,-4.477138 -10.000007,-9.99998 v -13.000011"
         style="fill:none;stroke:#000000;stroke-width:0.264583"
         id="path1365"
         sodipodi:nodetypes="cccccccccscccc" />
      <path
         d="m 114.04597,-84.259713 v -5.000017 a 5.0000005,5.0000005 0 0 0 -10,0 v 5.000017 a 5.0000005,5.0000005 0 0 0 10,0 z"
         style="fill:none;stroke:#000000;stroke-width:0.264583"
         id="path1367" />
      <path
         d="m -58.454032,-90.259722 a 1.5000025,1.5000025 0 1 0 -3.000005,0 1.5000025,1.5000025 0 1 0 3.000005,0 z"
         style="fill:none;stroke:#000000;stroke-width:0.264583"
         id="path1369" />
      <path
         d="m 279.54597,-90.259722 a 1.5,1.5 0 1 0 -3,0 1.5,1.5 0 1 0 3,0 z"
         style="fill:none;stroke:#000000;stroke-width:0.264583"
         id="path1371" />
      <path
         d="m 234.04597,-84.259713 v -5.000017 a 5.0000005,5.0000005 0 0 0 -10,0 v 5.000017 a 5.0000005,5.0000005 0 0 0 10,0 z"
         style="fill:none;stroke:#000000;stroke-width:0.264583"
         id="path1373" />
      <path
         d="m -5.9540322,-84.259713 v -5.000017 a 5.0000032,5.0000032 0 0 0 -10.0000058,0 v 5.000017 a 5.0000032,5.0000032 0 0 0 10.0000058,0 z"
         style="fill:none;stroke:#000000;stroke-width:0.264583"
         id="path1375" />
      <path
         d="m -75.954024,-97.259724 v -13.499996 h 3.999998 v 13.499996"
         style="fill:none;stroke:#000000;stroke-width:0.264583"
         id="path1377"
         sodipodi:nodetypes="cccc" />
    </g>
    <g
       id="g1644"
       transform="translate(12.851198,-124.71425)">
      <path
         d="m 225.54166,-240.72618 v -5 a 5.0000005,5.0000005 0 0 0 -10,0 v 5 a 5.0000005,5.0000005 0 0 0 10,0 z"
         style="fill:none;stroke:#000000;stroke-width:0.264583"
         id="path1507" />
      <path
         d="m 105.54166,-240.72618 v -5 a 5.0000005,5.0000005 0 0 0 -9.999999,0 v 5 a 5.0000005,5.0000005 0 0 0 9.999999,0 z"
         style="fill:none;stroke:#000000;stroke-width:0.264583"
         id="path1509" />
      <path
         d="m -14.458342,-240.72618 a 5.0000032,5.0000032 0 0 1 -10.000006,0 v -5 a 5.0000032,5.0000032 0 0 1 10.000006,0 z"
         style="fill:none;stroke:#000000;stroke-width:0.264583"
         id="path1511" />
      <path
         d="m -66.958342,-239.72618 a 1.5000025,1.5000025 0 1 0 -3.000005,0 1.5000025,1.5000025 0 1 0 3.000005,0 z"
         style="fill:none;stroke:#000000;stroke-width:0.264583"
         id="path1513" />
      <path
         d="m 271.04166,-239.72618 a 1.5,1.5 0 1 0 -3,0 1.5,1.5 0 1 0 3,0 z"
         style="fill:none;stroke:#000000;stroke-width:0.264583"
         id="path1515" />
      <path
         d="m -80.458336,-232.72618 h -3.999998 v -13 a 10,10 0 0 1 10.000007,-10 H 275.54166 a 10,10 0 0 1 10,10 v 13 h -4 v -2 h -4 v 2 H -76.458339 v -2 h -3.999997 z"
         style="fill:none;stroke:#000000;stroke-width:0.264583"
         id="path1517" />
    </g>
    <g
       id="g1651"
       transform="rotate(-90,-44.889871,-372.0089)">
      <path
         d="m -65.958323,-191.72618 a 1.5000025,1.5000025 0 1 0 -3.000005,0 1.5000025,1.5000025 0 1 0 3.000005,0 z"
         style="fill:none;stroke:#000000;stroke-width:0.264583"
         id="path1519" />
      <path
         d="m -65.958323,-119.72618 a 1.5000025,1.5000025 0 1 0 -3.000005,0 1.5000025,1.5000025 0 1 0 3.000005,0 z"
         style="fill:none;stroke:#000000;stroke-width:0.264583"
         id="path1521" />
      <path
         d="m -76.458339,-132.72619 v 3.00001 h 7.999994 v -3.00001 z"
         style="fill:none;stroke:#000000;stroke-width:0.264583"
         id="path1523" />
      <path
         d="m -68.458345,-178.72619 v -2.99998 h -7.999994 v 2.99998 z"
         style="fill:none;stroke:#000000;stroke-width:0.264583"
         id="path1525" />
      <path
         d="m -59.458331,-165.72618 -5.000016,4.99999 h -9.99998 v 10 h 9.99998 l 5.000016,5.00002 m 0,31.99998 h -25.000003 v -118.99999 h 3.999998 v -2 h 3.999997 v 2 h 17.000008"
         style="fill:none;stroke:#000000;stroke-width:0.264583"
         id="path1527"
         sodipodi:nodetypes="cccccccccccccc" />
    </g>
    <g
       id="g1666"
       transform="translate(12.851189,-182.71426)">
      <path
         d="m 277.54166,-78.726184 v 2.000012 h 4 v -2.000012 h 4 v 13.000011 c -10e-6,5.52284 -4.47716,9.99998 -10,9.99998 H -74.458327 c -5.522842,4e-6 -9.999996,-4.477138 -10.000007,-9.99998 v -13.000011 m 3.999998,0 v 2.000012 h 3.999997 v -2.000012"
         style="fill:none;stroke:#000000;stroke-width:0.264583"
         id="path1529"
         sodipodi:nodetypes="cccccsscsccccc" />
      <path
         d="m 105.54166,-65.726173 v -5.000017 a 5.0000005,5.0000005 0 0 0 -9.999999,0 v 5.000017 a 5.0000005,5.0000005 0 0 0 9.999999,0 z"
         style="fill:none;stroke:#000000;stroke-width:0.264583"
         id="path1531" />
      <path
         d="m -66.958342,-71.726182 a 1.5000025,1.5000025 0 1 0 -3.000005,0 1.5000025,1.5000025 0 1 0 3.000005,0 z"
         style="fill:none;stroke:#000000;stroke-width:0.264583"
         id="path1533" />
      <path
         d="m 271.04166,-71.726182 a 1.5,1.5 0 1 0 -3,0 1.5,1.5 0 1 0 3,0 z"
         style="fill:none;stroke:#000000;stroke-width:0.264583"
         id="path1535" />
      <path
         d="m 225.54166,-65.726173 v -5.000017 a 5.0000005,5.0000005 0 0 0 -10,0 v 5.000017 a 5.0000005,5.0000005 0 0 0 10,0 z"
         style="fill:none;stroke:#000000;stroke-width:0.264583"
         id="path1537" />
      <path
         d="m -14.458342,-65.726173 v -5.000017 a 5.0000032,5.0000032 0 0 0 -10.000006,0 v 5.000017 a 5.0000032,5.0000032 0 0 0 10.000006,0 z"
         style="fill:none;stroke:#000000;stroke-width:0.264583"
         id="path1539" />
    </g>
    <g
       id="g1658"
       transform="rotate(90,237.82438,-380.15771)">
      <path
         d="m 270.04166,-119.72618 a 1.5,1.5 0 1 0 -3,0 1.5,1.5 0 1 0 3,0 z"
         style="fill:none;stroke:#000000;stroke-width:0.264583"
         id="path1541" />
      <path
         d="m 270.04166,-191.72618 a 1.5,1.5 0 1 0 -3,0 1.5,1.5 0 1 0 3,0 z"
         style="fill:none;stroke:#000000;stroke-width:0.264583"
         id="path1543" />
      <path
         d="m 260.54166,-145.72617 5,-5.00002 h 10 v -10 h -10 l -5,-4.99999 m 0,-67 h 17 v -2 m 4,0 v 2 h 4 v 153.999996 h -4 v 2.000012 h -4 v -2.000012 h -17"
         style="fill:none;stroke:#000000;stroke-width:0.264583"
         id="path1545"
         sodipodi:nodetypes="cccccccccccccccccc" />
      <path
         d="m 277.54166,-129.72618 v -3.00001 h -8 v 3.00001 z"
         style="fill:none;stroke:#000000;stroke-width:0.264583"
         id="path1547" />
      <path
         d="m 269.54166,-181.72617 v 2.99998 h 8 v -2.99998 z"
         style="fill:none;stroke:#000000;stroke-width:0.264583"
         id="path1549" />
    </g>
    <g
       inkscape:label="0"
       id="g1855"
       transform="matrix(0.26458333,0,0,0.26458333,-46.607138,-460.44045)">
      <path
         d="m 1266.1417,1413.5433 h 18.8977 v -26.4567 h -18.8977 m 0,124.7244 V 922.20472 H -56.692913 V 1511.811 H 1266.1417"
         style="fill:none;stroke:#000000"
         id="path1811"
         sodipodi:nodetypes="ccccccccc" />
      <path
         d="m 158.74016,878.42806 a 18.897638,18.897638 0 1 1 -15.11811,0 v -1.57767 a 7.559055,7.559055 0 0 1 15.11811,0 z"
         style="fill:none;stroke:#000000"
         id="path1813" />
      <path
         d="m 612.28346,878.42806 a 18.897638,18.897638 0 1 1 -15.11811,0 v -1.57767 a 7.5590555,7.5590555 0 0 1 15.11811,0 z"
         style="fill:none;stroke:#000000"
         id="path1815" />
      <path
         d="m 1065.8268,878.42806 a 18.897638,18.897638 0 1 1 -15.1181,0 v -1.57767 a 7.5590555,7.5590555 0 0 1 15.1181,0 z"
         style="fill:none;stroke:#000000"
         id="path1817" />
      <path
         d="m -56.692913,1594.9606 c -20.873725,0 -37.795234,-16.9215 -37.795276,-37.7952 V 876.85039 c 3e-6,-20.87375 16.921524,-37.79527 37.795276,-37.79527 m 1322.834613,0 c 20.8738,-10e-6 37.7953,16.92151 37.7953,37.79527 v 680.31501 c 0,20.8737 -16.9216,37.7952 -37.7953,37.7952"
         style="fill:none;stroke:#000000"
         id="path1819"
         sodipodi:nodetypes="ccsccscc" />
      <path
         d="m 1050.7087,1555.5877 a 18.897638,18.897638 0 1 1 15.1181,0 v 1.5777 a 7.5590555,7.5590555 0 0 1 -15.1181,0 z"
         style="fill:none;stroke:#000000"
         id="path1821" />
      <path
         d="m 597.16535,1555.5877 v 1.5777 a 7.5590555,7.5590555 0 0 0 15.11811,0 v -1.5777 a 18.897638,18.897638 0 1 0 -15.11811,0 z"
         style="fill:none;stroke:#000000"
         id="path1823" />
      <path
         d="m -28.346457,1534.4882 a 5.669291,5.669291 0 1 0 -11.338582,0 5.669291,5.669291 0 1 0 11.338582,0 z"
         style="fill:none;stroke:#000000"
         id="path1825" />
      <path
         d="m 1249.1339,1534.4882 a 5.6693,5.6693 0 1 0 -11.3386,0 5.6693,5.6693 0 1 0 11.3386,0 z"
         style="fill:none;stroke:#000000"
         id="path1827" />
      <path
         d="m -28.346457,899.52756 a 5.669291,5.669291 0 1 0 -11.338582,0 5.669291,5.669291 0 1 0 11.338582,0 z"
         style="fill:none;stroke:#000000"
         id="path1829" />
      <path
         d="m 1249.1339,899.52756 a 5.6693,5.6693 0 1 0 -11.3386,0 5.6693,5.6693 0 1 0 11.3386,0 z"
         style="fill:none;stroke:#000000"
         id="path1831" />
      <path
         d="m 143.62205,1555.5877 a 18.897638,18.897638 0 1 1 15.11811,0 v 1.5777 a 7.559055,7.559055 0 0 1 -15.11811,0 z"
         style="fill:none;stroke:#000000"
         id="path1833" />
      <path
         d="m -24.566929,1080.9449 a 5.6692915,5.6692915 0 1 0 -11.338583,0 5.6692915,5.6692915 0 1 0 11.338583,0 z"
         style="fill:none;stroke:#000000"
         id="path1835" />
      <path
         d="m -56.692913,1235.9055 h 11.338582"
         style="fill:none;stroke:#000000"
         id="path1837" />
      <path
         d="m -45.354331,1235.9055 v 56.6929"
         style="fill:none;stroke:#000000"
         id="path1839" />
      <path
         d="M -45.354331,1292.5984 H -56.692913"
         style="fill:none;stroke:#000000"
         id="path1841" />
      <path
         d="m -24.566929,1353.0709 a 5.6692915,5.6692915 0 1 0 -11.338583,0 5.6692915,5.6692915 0 1 0 11.338583,0 z"
         style="fill:none;stroke:#000000"
         id="path1843" />
      <path
         d="m 1245.3543,1353.0709 a 5.6693,5.6693 0 1 0 -11.3386,0 5.6693,5.6693 0 1 0 11.3386,0 z"
         style="fill:none;stroke:#000000"
         id="path1845" />
      <path
         d="m 1254.8032,1292.5984 h 11.3385"
         style="fill:none;stroke:#000000"
         id="path1847" />
      <path
         d="m 1254.8032,1235.9055 v 56.6929"
         style="fill:none;stroke:#000000"
         id="path1849" />
      <path
         d="m 1266.1417,1235.9055 h -11.3385"
         style="fill:none;stroke:#000000"
         id="path1851" />
      <path
         d="m 1245.3543,1080.9449 a 5.6693,5.6693 0 1 0 -11.3386,0 5.6693,5.6693 0 1 0 11.3386,0 z"
         style="fill:none;stroke:#000000"
         id="path1853" />
    </g>
    <path
       id="rect1932"
       style="fill:#ff9e00;fill-opacity:0.367647;stroke:#000000;stroke-width:0.4;stroke-linecap:round;stroke-opacity:1;stop-color:#000000"
       transform="scale(-1)"
       d="m -213.39284,347.44043 h -8 v -9"
       sodipodi:nodetypes="ccc" />
    <path
       id="rect1934"
       style="fill:#ff9e00;fill-opacity:0.367647;stroke:#000000;stroke-width:0.4;stroke-linecap:round;stroke-opacity:1;stop-color:#000000"
       transform="scale(-1)"
       d="m -213.39284,329.44043 h -8 v -9"
       sodipodi:nodetypes="ccc" />
    <path
       id="rect1936"
       style="fill:#ff9e00;fill-opacity:0.367647;stroke:#000000;stroke-width:0.4;stroke-linecap:round;stroke-opacity:1;stop-color:#000000"
       d="M 8.3928604,-326.44043 H 16.39286 v 9 m 0,0 H 8.3928604 m 0,0 v -9"
       sodipodi:nodetypes="ccccccc" />
    <path
       id="rect1938"
       style="fill:#ff9e00;fill-opacity:0.367647;stroke:#000000;stroke-width:0.4;stroke-linecap:round;stroke-opacity:1;stop-color:#000000"
       d="m 166.39284,-326.44043 h 8 v 9"
       sodipodi:nodetypes="ccc" />
    <path
       id="rect1942"
       style="fill:#ff9e00;fill-opacity:0.367647;stroke:#000000;stroke-width:0.4;stroke-linecap:round;stroke-opacity:1;stop-color:#000000"
       d="m 166.39284,-351.44043 h 8 v 9"
       sodipodi:nodetypes="ccc" />
    <path
       id="rect1946"
       style="fill:#ff9e00;fill-opacity:0.367647;stroke:#000000;stroke-width:0.4;stroke-linecap:round;stroke-opacity:1;stop-color:#000000"
       transform="scale(-1)"
       d="m -213.39284,338.44043 h -8 v -9"
       sodipodi:nodetypes="ccc" />
    <path
       id="rect1948"
       style="fill:#ff9e00;fill-opacity:0.367647;stroke:#000000;stroke-width:0.4;stroke-linecap:round;stroke-opacity:1;stop-color:#000000"
       transform="scale(-1)"
       d="m -213.39284,320.44043 h -8 v -9"
       sodipodi:nodetypes="ccc" />
    <path
       id="rect1950"
       style="fill:#ff9e00;fill-opacity:0.367647;stroke:#000000;stroke-width:0.4;stroke-linecap:round;stroke-opacity:1;stop-color:#000000"
       transform="scale(-1)"
       d="M -8.3928604,351.44043 H -16.39286 v -9 m 0,0 h 7.9999996"
       sodipodi:nodetypes="ccccc" />
  </g>
</svg>
